<?xml version="1.0" encoding="UTF-8"?>
<svg id="Calque_1" xmlns="http://www.w3.org/2000/svg" version="1.1" viewBox="0 0 779.34 247.52">
  <!-- Generator: Adobe Illustrator 29.6.1, SVG Export Plug-In . SVG Version: 2.1.1 Build 9)  -->
  <path d="M0,19.54L19.54,0h51.13l19.54,19.54v52.43h-31.27v-38.76l-6.51-6.51h-14.66l-6.51,6.51v181.08l6.51,6.51h14.66l6.51-6.51v-67.74h-15.63v-28.01h46.9v109.43l-19.54,19.54H19.54L0,227.98V19.54Z"/>
  <path d="M193.78,227.98l-19.54,19.54h-54.39l-19.54-19.54V19.54L119.85,0h54.39l19.54,19.54v208.44ZM138.09,26.71l-6.51,6.51v181.08l6.51,6.51h17.91l6.51-6.51V33.22l-6.51-6.51h-17.91Z"/>
  <path d="M205.5,247.52V0h31.27v220.81h41.36v26.71h-72.63Z"/>
  <path d="M282.36,19.54L301.9,0h51.13l19.54,19.54v52.43h-31.27v-38.76l-6.51-6.51h-14.66l-6.51,6.51v181.08l6.51,6.51h14.66l6.51-6.51v-67.74h-15.63v-28.01h46.9v109.43l-19.54,19.54h-51.13l-19.54-19.54V19.54Z"/>
  <path d="M476.14,227.98l-19.54,19.54h-54.39l-19.54-19.54V19.54L402.21,0h54.39l19.54,19.54v208.44ZM420.45,26.71l-6.51,6.51v181.08l6.51,6.51h17.91l6.51-6.51V33.22l-6.51-6.51h-17.91Z"/>
  <path d="M539.64,26.05v221.46h-31.27V26.05h-29.64V0h90.54v26.05h-29.64Z"/>
  <path d="M605.43,109.75h32.89V0h31.27v247.52h-31.27v-110.41h-32.89v110.41h-31.27V0h31.27v109.75Z"/>
  <path d="M711.93,183.69l-6.19,63.83h-31.27L704.11,0h44.94l30.29,247.52h-32.57l-6.19-63.83h-28.66ZM726.26,32.24l-12.05,124.74h24.1l-12.05-124.74Z"/>
</svg>